<svg width="100" height="100" viewBox="0 0 100 100" fill="none" xmlns="http://www.w3.org/2000/svg">
<g clip-path="url(#clip0_101_92)">
<circle cx="50.0454" cy="49.9546" r="59.9546" stroke="#173561" stroke-width="7.15876"/>
<circle cx="50.0454" cy="49.9543" r="42.8247" stroke="#173561" stroke-width="7.15876"/>
<path d="M50.4791 76H30.3687V23.7335H50.2749C55.6513 23.7335 60.2961 24.7799 64.2092 26.8726C68.1394 28.9483 71.1679 31.9427 73.2946 35.8559C75.4384 39.7521 76.5102 44.4223 76.5102 49.8668C76.5102 55.3112 75.4469 59.99 73.3201 63.9032C71.1934 67.7993 68.182 70.7938 64.2858 72.8865C60.3896 74.9622 55.7874 76 50.4791 76ZM44.5583 63.9542H49.9687C52.5548 63.9542 54.7581 63.5374 56.5785 62.7037C58.416 61.87 59.8112 60.4324 60.7639 58.3907C61.7337 56.349 62.2186 53.5077 62.2186 49.8668C62.2186 46.2258 61.7252 43.3845 60.7384 41.3428C59.7686 39.3012 58.3395 37.8635 56.4509 37.0298C54.5794 36.1962 52.2825 35.7793 49.5603 35.7793H44.5583V63.9542Z" fill="#FF7272"/>
</g>
<defs>
<clipPath id="clip0_101_92">
<rect width="100" height="100" fill="white"/>
</clipPath>
</defs>
</svg>
